<?xml version="1.0" standalone="no"?>
<!DOCTYPE svg PUBLIC "-//W3C//DTD SVG 20010904//EN"
 "http://www.w3.org/TR/2001/REC-SVG-20010904/DTD/svg10.dtd">
<svg version="1.0" xmlns="http://www.w3.org/2000/svg"
 width="378.000000pt" height="24.000000pt" viewBox="0 0 378.000000 24.000000"
 preserveAspectRatio="xMidYMid meet">

<g transform="translate(0.000000,24.000000) scale(0.100000,-0.100000)"
fill="#000000" stroke="none">
<path d="M0 120 l0 -120 886 0 885 0 -20 26 c-32 40 -29 126 4 159 42 43 135
26 135 -23 0 -17 -25 -15 -40 3 -7 8 -23 15 -37 15 -44 0 -65 -94 -30 -137 13
-18 56 -16 63 2 7 18 44 20 44 3 0 -6 -7 -20 -17 -30 -15 -17 -14 -18 15 -18
l32 0 0 105 0 105 65 0 c51 0 65 -3 65 -15 0 -11 -12 -15 -45 -15 -43 0 -45
-1 -45 -30 0 -29 2 -30 45 -30 33 0 45 -4 45 -15 0 -11 -12 -15 -45 -15 l-45
0 0 -45 0 -45 81 0 c79 0 81 0 59 18 -23 19 -37 83 -26 126 17 67 112 91 163
40 23 -23 25 -31 21 -86 -4 -48 -9 -65 -27 -79 -23 -19 -23 -19 58 -19 l81 0
0 105 0 105 53 0 c69 0 99 -17 115 -64 15 -48 1 -108 -31 -131 -21 -14 -20
-15 24 -15 45 0 45 0 41 30 -6 40 13 60 54 60 36 0 43 10 20 29 -11 9 -17 8
-29 -4 -17 -17 -47 -20 -47 -6 0 34 81 56 108 29 7 -7 12 -39 12 -75 0 -62 1
-63 27 -63 21 0 24 3 15 12 -15 15 -16 38 0 38 6 0 20 -8 30 -17 13 -12 22
-13 29 -6 15 15 3 33 -21 33 -22 0 -50 25 -50 45 0 38 79 62 108 33 18 -18 14
-38 -8 -38 -11 0 -20 5 -20 10 0 6 -9 10 -21 10 -31 0 -18 -21 21 -34 38 -12
51 -45 30 -72 -10 -12 -8 -14 14 -14 l26 0 0 105 c0 98 1 105 20 105 16 0 20
-7 20 -33 0 -32 2 -33 30 -29 47 7 60 -11 60 -84 0 -57 2 -64 20 -64 19 0 20
7 20 105 0 98 1 105 20 105 16 0 20 -7 20 -33 0 -32 2 -33 30 -29 44 6 70 -20
70 -71 0 -24 -7 -48 -17 -59 -15 -17 -14 -18 25 -18 l40 0 -15 30 c-28 57 5
120 64 120 63 0 96 -73 57 -128 -15 -21 -14 -22 20 -22 33 0 35 2 26 24 -13
36 12 66 56 66 37 0 43 10 18 31 -14 11 -18 11 -29 -4 -11 -16 -45 -24 -45
-11 0 26 24 44 58 44 52 0 62 -14 62 -87 0 -56 2 -63 20 -63 18 0 20 7 20 75
0 60 3 75 15 75 8 0 15 -5 15 -12 0 -9 3 -9 12 0 16 16 48 15 48 -2 0 -8 -11
-17 -25 -20 -23 -6 -25 -11 -25 -61 l0 -55 46 0 c45 0 45 0 30 22 -21 29 -20
77 0 107 13 19 24 22 55 19 38 -3 39 -3 39 29 0 23 5 33 15 33 8 0 15 7 15 15
0 13 -217 15 -1890 15 l-1890 0 0 -120z"/>
<path d="M2127 162 c-22 -24 -22 -95 -1 -116 22 -23 71 -20 84 3 5 11 10 36
10 56 0 20 -5 45 -10 56 -14 25 -61 25 -83 1z"/>
<path d="M2410 105 l0 -75 28 0 c33 0 45 8 61 37 16 32 14 57 -10 87 -14 17
-30 26 -50 26 l-29 0 0 -75z"/>
<path d="M2917 113 c-4 -3 -7 -30 -7 -60 0 -52 0 -53 30 -53 29 0 30 2 30 44
0 24 -3 51 -6 60 -6 16 -35 22 -47 9z"/>
<path d="M3084 106 c-3 -8 -4 -27 -2 -43 2 -22 8 -28 28 -28 31 0 51 45 30 69
-16 20 -49 21 -56 2z"/>
<path d="M3252 108 c-34 -34 7 -108 44 -77 23 19 15 83 -11 87 -11 1 -26 -3
-33 -10z"/>
<path d="M3687 113 c-13 -12 -7 -71 8 -83 30 -25 66 31 45 70 -10 19 -40 27
-53 13z"/>
<path d="M2612 58 c-16 -16 -15 -25 3 -32 15 -5 45 18 45 35 0 13 -34 11 -48
-3z"/>
<path d="M3423 63 c-18 -7 -16 -30 2 -37 15 -5 45 18 45 35 0 9 -26 11 -47 2z"/>
</g>
</svg>
